<?xml version="1.0" standalone="no"?>
<svg xmlns:xlink="http://www.w3.org/1999/xlink" id="wave" style="transform:rotate(0deg); transition: 0.3s" viewBox="0 0 1440 490" version="1.1" xmlns="http://www.w3.org/2000/svg"><defs><linearGradient id="sw-gradient-0" x1="0" x2="0" y1="1" y2="0"><stop stop-color="rgba(255, 255, 255, 0.2)" offset="0%"/><stop stop-color="rgba(255, 255, 255, 0.16)" offset="100%"/></linearGradient></defs><path style="transform:translate(0, 0px); opacity:1" fill="url(#sw-gradient-0)" d="M0,392L34.3,326.7C68.6,261,137,131,206,130.7C274.3,131,343,261,411,269.5C480,278,549,163,617,98C685.7,33,754,16,823,32.7C891.4,49,960,98,1029,138.8C1097.1,180,1166,212,1234,236.8C1302.9,261,1371,278,1440,277.7C1508.6,278,1577,261,1646,269.5C1714.3,278,1783,310,1851,277.7C1920,245,1989,147,2057,155.2C2125.7,163,2194,278,2263,334.8C2331.4,392,2400,392,2469,334.8C2537.1,278,2606,163,2674,147C2742.9,131,2811,212,2880,204.2C2948.6,196,3017,98,3086,114.3C3154.3,131,3223,261,3291,326.7C3360,392,3429,392,3497,359.3C3565.7,327,3634,261,3703,236.8C3771.4,212,3840,229,3909,220.5C3977.1,212,4046,180,4114,179.7C4182.9,180,4251,212,4320,228.7C4388.6,245,4457,245,4526,245C4594.3,245,4663,245,4731,277.7C4800,310,4869,376,4903,408.3L4937.1,441L4937.1,490L4902.9,490C4868.6,490,4800,490,4731,490C4662.9,490,4594,490,4526,490C4457.1,490,4389,490,4320,490C4251.4,490,4183,490,4114,490C4045.7,490,3977,490,3909,490C3840,490,3771,490,3703,490C3634.3,490,3566,490,3497,490C3428.6,490,3360,490,3291,490C3222.9,490,3154,490,3086,490C3017.1,490,2949,490,2880,490C2811.4,490,2743,490,2674,490C2605.7,490,2537,490,2469,490C2400,490,2331,490,2263,490C2194.3,490,2126,490,2057,490C1988.6,490,1920,490,1851,490C1782.9,490,1714,490,1646,490C1577.1,490,1509,490,1440,490C1371.4,490,1303,490,1234,490C1165.7,490,1097,490,1029,490C960,490,891,490,823,490C754.3,490,686,490,617,490C548.6,490,480,490,411,490C342.9,490,274,490,206,490C137.1,490,69,490,34,490L0,490Z"/><defs><linearGradient id="sw-gradient-1" x1="0" x2="0" y1="1" y2="0"><stop stop-color="rgba(255, 255, 255, 0.12)" offset="0%"/><stop stop-color="rgba(255, 255, 255, 0.05)" offset="100%"/></linearGradient></defs><path style="transform:translate(0, 50px); opacity:0.9" fill="url(#sw-gradient-1)" d="M0,196L34.3,179.7C68.6,163,137,131,206,114.3C274.3,98,343,98,411,130.7C480,163,549,229,617,277.7C685.7,327,754,359,823,351.2C891.4,343,960,294,1029,228.7C1097.1,163,1166,82,1234,57.2C1302.9,33,1371,65,1440,81.7C1508.6,98,1577,98,1646,122.5C1714.3,147,1783,196,1851,236.8C1920,278,1989,310,2057,294C2125.7,278,2194,212,2263,196C2331.4,180,2400,212,2469,228.7C2537.1,245,2606,245,2674,236.8C2742.9,229,2811,212,2880,171.5C2948.6,131,3017,65,3086,49C3154.3,33,3223,65,3291,81.7C3360,98,3429,98,3497,122.5C3565.7,147,3634,196,3703,228.7C3771.4,261,3840,278,3909,253.2C3977.1,229,4046,163,4114,187.8C4182.9,212,4251,327,4320,334.8C4388.6,343,4457,245,4526,220.5C4594.3,196,4663,245,4731,285.8C4800,327,4869,359,4903,375.7L4937.1,392L4937.1,490L4902.9,490C4868.6,490,4800,490,4731,490C4662.9,490,4594,490,4526,490C4457.1,490,4389,490,4320,490C4251.4,490,4183,490,4114,490C4045.7,490,3977,490,3909,490C3840,490,3771,490,3703,490C3634.3,490,3566,490,3497,490C3428.6,490,3360,490,3291,490C3222.9,490,3154,490,3086,490C3017.1,490,2949,490,2880,490C2811.4,490,2743,490,2674,490C2605.7,490,2537,490,2469,490C2400,490,2331,490,2263,490C2194.3,490,2126,490,2057,490C1988.6,490,1920,490,1851,490C1782.9,490,1714,490,1646,490C1577.1,490,1509,490,1440,490C1371.4,490,1303,490,1234,490C1165.7,490,1097,490,1029,490C960,490,891,490,823,490C754.3,490,686,490,617,490C548.6,490,480,490,411,490C342.9,490,274,490,206,490C137.1,490,69,490,34,490L0,490Z"/></svg>